<?xml version="1.0" standalone="no"?>
<!DOCTYPE svg PUBLIC "-//W3C//DTD SVG 20010904//EN"
 "http://www.w3.org/TR/2001/REC-SVG-20010904/DTD/svg10.dtd">
<svg version="1.0" xmlns="http://www.w3.org/2000/svg"
 width="1080.000000pt" height="1080.000000pt" viewBox="0 0 1080.000000 1080.000000"
 preserveAspectRatio="xMidYMid meet">

<g transform="translate(0.000000,1080.000000) scale(0.100000,-0.100000)"
fill="#000000" stroke="none">
<path d="M4700 9565 c-25 -7 -97 -25 -160 -39 -189 -42 -212 -47 -280 -62 -35
-8 -69 -19 -74 -24 -7 -7 -5 -37 8 -93 9 -45 22 -104 27 -132 5 -27 14 -59 19
-70 5 -11 12 -45 16 -75 3 -30 12 -70 20 -89 8 -18 14 -45 14 -58 0 -14 7 -52
15 -86 9 -34 24 -98 34 -142 17 -79 18 -80 51 -83 18 -2 54 4 81 12 26 9 55
16 64 16 12 0 15 5 10 18 -7 19 -16 57 -40 177 -9 44 -19 87 -21 96 -5 19 54
49 99 49 18 0 50 5 72 11 22 6 71 17 109 24 37 8 75 20 82 26 15 12 18 56 8
108 -6 26 -11 31 -36 31 -28 0 -151 -25 -270 -55 -32 -8 -67 -15 -77 -15 -25
0 -47 47 -55 115 -3 28 -8 64 -11 81 l-7 31 99 22 c54 13 123 30 153 38 30 8
82 18 114 24 33 5 62 11 64 14 3 3 1 35 -4 72 l-9 68 -35 2 c-19 1 -55 -4 -80
-12z"/>
<path d="M5338 9410 c-16 -4 -50 -25 -78 -45 l-49 -36 -6 28 c-13 55 -9 53
-92 47 -43 -4 -80 -9 -82 -11 -9 -7 20 -617 30 -635 9 -16 21 -18 92 -16 l82
3 -4 190 c-3 178 -2 194 17 232 26 49 70 78 135 87 l48 7 -3 77 -3 77 -30 2
c-16 1 -42 -2 -57 -7z"/>
<path d="M5769 9381 c-108 -23 -202 -107 -238 -213 -57 -169 16 -342 177 -420
58 -28 80 -33 163 -36 99 -4 110 -2 207 46 42 20 120 106 129 140 3 14 12 37
19 51 22 41 18 160 -8 226 -27 72 -98 146 -170 179 -58 27 -211 42 -279 27z
m177 -155 c85 -40 116 -109 100 -221 -9 -57 -60 -118 -113 -136 -79 -26 -173
11 -214 84 -17 32 -20 51 -17 107 3 58 8 75 34 107 31 39 103 82 139 82 11 1
43 -10 71 -23z"/>
<path d="M6455 9258 c-10 -35 -76 -219 -91 -255 -8 -17 -14 -37 -14 -45 0 -7
-6 -25 -14 -40 -8 -15 -17 -41 -21 -59 -4 -19 -11 -40 -16 -49 -12 -21 -40
-100 -46 -130 -4 -23 1 -27 65 -47 106 -35 103 -36 136 65 16 48 32 96 37 107
4 11 20 52 35 90 14 39 36 81 48 93 25 28 78 52 115 52 44 -1 109 -36 131 -72
33 -55 29 -81 -51 -298 -23 -63 -42 -130 -43 -149 -1 -32 2 -35 54 -53 94 -33
97 -33 113 -2 8 16 26 65 41 109 15 44 31 89 36 100 8 19 42 123 61 191 30
104 -42 234 -159 286 -50 23 -168 31 -227 15 -29 -7 -30 -7 -30 29 0 35 -2 36
-64 60 -78 30 -88 30 -96 2z"/>
<path d="M7360 8999 l-41 -69 -39 20 c-22 11 -43 20 -47 20 -8 0 -77 -111 -71
-114 33 -18 78 -53 78 -61 0 -5 -32 -64 -71 -130 -80 -135 -99 -180 -99 -235
0 -50 30 -118 66 -151 40 -37 126 -80 173 -86 37 -5 39 -4 49 28 6 19 14 51
18 72 6 36 6 37 -25 37 -44 0 -94 47 -93 87 0 17 28 76 66 142 36 62 66 115
66 120 0 4 5 12 11 18 8 8 27 2 69 -23 32 -19 65 -34 73 -34 16 0 77 82 77
103 0 7 -29 28 -65 47 -36 19 -65 42 -65 50 0 8 16 40 35 70 24 39 31 58 23
67 -5 7 -41 30 -79 52 l-69 40 -40 -70z"/>
<path d="M3018 8662 c-39 -40 -78 -117 -78 -153 0 -22 0 -22 -28 4 -15 15 -32
27 -38 27 -5 0 -30 -17 -56 -37 -25 -21 -53 -42 -63 -48 -15 -9 -10 -18 37
-78 29 -38 71 -93 93 -122 63 -82 116 -151 163 -208 24 -28 51 -64 60 -80 9
-15 24 -29 33 -32 18 -6 91 38 124 75 25 27 21 33 -101 190 -101 128 -118 170
-102 245 7 34 20 54 54 84 l44 39 -44 60 c-24 33 -48 62 -54 65 -5 4 -25 -11
-44 -31z"/>
<path d="M3785 8594 c-46 -24 -64 -44 -70 -78 -8 -39 5 -73 40 -109 49 -48
101 -48 155 1 45 40 50 90 16 142 -39 59 -85 73 -141 44z"/>
<path d="M7750 8543 c-127 -26 -234 -131 -264 -261 -13 -59 -13 -73 0 -131 28
-121 93 -202 223 -282 46 -28 64 -33 120 -33 l66 -1 0 59 c0 65 1 63 -79 92
-58 20 -133 85 -152 131 -21 49 -16 143 8 143 9 0 75 -54 262 -213 50 -42 101
-80 114 -83 31 -8 59 19 97 93 26 51 30 68 30 143 0 74 -4 92 -28 140 -79 152
-240 234 -397 203z m167 -160 c65 -31 105 -90 105 -158 0 -42 -15 -85 -30 -85
-12 0 -253 212 -248 218 43 42 113 52 173 25z"/>
<path d="M2472 8169 c-70 -35 -150 -116 -184 -187 -31 -67 -32 -208 -1 -272
32 -70 106 -145 170 -176 143 -67 294 -28 419 109 56 62 82 107 104 183 19 66
13 79 -44 82 -70 5 -96 -4 -96 -31 -1 -38 -36 -100 -81 -143 -64 -61 -130 -78
-193 -51 l-29 13 69 79 c38 44 109 122 159 173 118 122 120 126 70 169 -67 59
-132 83 -223 83 -68 0 -87 -4 -140 -31z m196 -143 c16 -15 6 -27 -148 -189
-72 -76 -79 -75 -101 5 -19 72 28 159 106 195 36 16 122 10 143 -11z"/>
<path d="M8339 8022 c-107 -85 -112 -89 -286 -228 -68 -53 -123 -102 -123
-108 0 -7 19 -37 42 -69 60 -82 49 -85 252 75 102 80 153 108 200 108 29 0 45
-10 91 -54 50 -49 55 -58 55 -98 0 -25 -8 -55 -18 -70 -18 -28 -102 -99 -246
-212 -42 -32 -76 -62 -76 -66 0 -12 101 -140 111 -140 4 0 23 13 41 28 18 16
95 77 170 136 76 59 147 120 158 136 11 16 29 55 39 88 20 61 19 71 -9 166
-16 54 -121 158 -175 175 -22 7 -46 15 -54 17 -11 4 -9 10 8 27 11 13 21 26
21 30 0 7 -100 138 -103 136 -1 0 -45 -35 -98 -77z"/>
<path d="M2002 7559 c-109 -54 -171 -148 -179 -270 l-5 -76 -36 1 c-31 1 -38
-4 -63 -44 -54 -88 -64 -78 249 -261 152 -89 321 -189 375 -221 53 -32 102
-58 107 -58 15 0 90 137 84 153 -3 9 -59 46 -124 84 -66 37 -120 71 -120 74 0
3 18 14 40 24 51 23 111 87 141 151 18 40 23 66 23 139 1 106 -17 149 -93 225
-71 71 -147 104 -251 108 -79 3 -90 0 -148 -29z m175 -161 c34 -8 60 -25 99
-65 51 -50 54 -56 54 -104 0 -152 -154 -236 -282 -153 -43 28 -84 78 -93 117
-20 80 37 185 112 205 52 14 58 14 110 0z"/>
<path d="M8652 7254 c-78 -38 -132 -93 -164 -162 -20 -45 -27 -159 -13 -222
15 -69 91 -168 146 -191 34 -13 37 -25 9 -34 -27 -9 -25 -36 7 -106 32 -71 46
-74 131 -28 31 17 82 41 112 54 93 40 620 294 620 299 0 15 -73 156 -81 156
-11 0 -59 -21 -183 -81 -45 -21 -85 -39 -91 -39 -6 0 -9 29 -7 72 4 92 -25
165 -94 233 -74 73 -106 85 -222 85 -94 0 -103 -2 -170 -36z m236 -149 c102
-43 149 -153 103 -243 -24 -48 -45 -66 -104 -91 -98 -42 -189 -15 -235 69 -20
38 -23 55 -19 104 5 52 10 63 47 101 25 25 60 48 88 57 61 21 75 21 120 3z"/>
<path d="M1739 6820 c-106 -18 -189 -85 -245 -198 -38 -75 -39 -80 -39 -182 1
-80 5 -112 18 -135 9 -16 17 -35 17 -40 0 -17 102 -112 145 -134 33 -18 57
-21 153 -21 133 0 161 10 237 89 97 100 137 245 103 379 -29 116 -137 218
-254 237 -75 12 -89 13 -135 5z m167 -221 c43 -26 84 -91 84 -133 0 -54 -36
-123 -82 -156 -102 -74 -272 -5 -302 123 -8 35 9 99 37 143 16 25 36 39 77 52
50 17 59 18 105 5 28 -8 64 -23 81 -34z"/>
<path d="M9589 6155 c-3 -2 -59 -9 -125 -15 -65 -5 -146 -14 -179 -20 -33 -5
-118 -15 -190 -21 -71 -6 -166 -16 -210 -22 l-80 -12 3 -65 c2 -36 8 -99 13
-140 6 -41 14 -114 19 -162 11 -102 40 -196 81 -258 70 -108 140 -156 270
-186 68 -15 78 -15 167 1 182 35 294 144 338 332 18 75 16 112 -11 368 -21
192 -25 205 -63 205 -16 0 -31 -2 -33 -5z m-52 -300 c17 -133 15 -178 -8 -241
-28 -73 -81 -126 -155 -154 -93 -35 -115 -35 -191 -6 -136 52 -183 140 -200
372 l-5 60 40 12 c22 7 68 12 103 12 35 1 84 6 109 11 47 11 214 27 265 25
l30 -1 12 -90z"/>
<path d="M1085 6058 c-2 -7 -6 -33 -9 -58 -2 -25 -8 -59 -11 -76 l-7 -32 104
-12 c56 -6 115 -16 131 -20 15 -5 55 -12 90 -15 34 -3 94 -12 132 -20 155 -31
247 -45 322 -51 43 -4 85 -10 94 -15 31 -16 50 21 52 102 l2 74 -50 7 c-49 6
-87 13 -255 43 -92 17 -178 30 -305 46 -44 6 -105 17 -136 25 -69 18 -148 18
-154 2z"/>
<path d="M1444 5640 c-71 -35 -102 -66 -140 -140 -27 -51 -29 -64 -29 -165 0
-99 3 -116 27 -165 50 -105 149 -174 265 -186 70 -8 176 10 194 32 6 8 18 14
26 14 17 0 103 87 103 104 0 7 5 17 12 24 6 6 20 38 30 69 24 79 24 197 -2
269 -21 62 -64 124 -84 124 -8 0 -32 -20 -55 -46 l-42 -45 22 -37 c15 -26 23
-59 27 -109 4 -65 2 -78 -23 -127 -21 -41 -36 -58 -66 -72 -22 -9 -43 -14 -47
-10 -4 4 -8 112 -9 239 -1 128 -2 238 -2 245 -1 8 -23 12 -74 12 -62 0 -84 -5
-133 -30z m110 -172 c0 -16 -1 -89 -2 -163 -2 -135 -2 -135 -26 -135 -13 0
-43 17 -67 39 l-44 39 0 87 0 87 44 40 c55 48 96 50 95 6z"/>
<path d="M9080 5153 c-168 -57 -260 -195 -260 -390 0 -86 22 -159 58 -195 l21
-21 40 27 c63 44 66 50 46 92 -14 29 -16 55 -13 120 4 71 8 87 32 118 31 41
59 61 97 70 33 7 40 -7 28 -60 -12 -56 -39 -265 -46 -361 l-6 -82 27 -7 c38
-9 165 1 179 15 6 6 17 11 24 11 44 0 173 138 173 185 0 12 7 39 15 58 20 49
19 110 -6 187 -46 149 -172 241 -328 239 -36 0 -73 -3 -81 -6z m234 -228 c47
-46 61 -101 45 -169 -14 -58 -38 -87 -93 -110 -65 -27 -67 -25 -60 57 3 39 12
114 21 165 18 107 30 115 87 57z"/>
<path d="M1286 4881 c-8 -13 11 -106 29 -140 13 -26 22 -30 87 -41 40 -6 88
-16 106 -22 18 -5 56 -14 85 -18 94 -16 198 -43 195 -52 -2 -4 -27 -23 -55
-41 -152 -93 -263 -164 -305 -194 -44 -32 -46 -36 -41 -71 7 -51 32 -142 39
-142 4 0 23 13 43 29 20 15 41 30 46 32 6 2 78 49 160 103 83 55 194 128 248
163 53 36 97 66 97 69 0 3 -7 21 -15 41 -8 19 -15 56 -15 82 0 25 -4 51 -8 57
-4 7 -34 17 -67 22 -33 6 -89 18 -125 26 -156 35 -259 57 -315 67 -33 6 -83
17 -111 25 -59 16 -71 17 -78 5z"/>
<path d="M8834 4482 c-25 -16 -95 -128 -125 -200 -36 -88 -49 -208 -30 -280
23 -85 115 -142 204 -127 47 8 112 64 142 122 54 103 99 174 117 184 26 14 68
-13 69 -44 3 -72 -27 -161 -76 -219 -14 -16 -25 -35 -25 -42 0 -6 21 -32 46
-56 l46 -45 29 35 c77 91 122 211 123 330 0 71 -4 92 -23 127 -34 60 -70 83
-144 90 -47 4 -71 1 -93 -10 -41 -21 -92 -86 -130 -163 -61 -123 -100 -157
-137 -116 -39 43 0 178 79 273 19 22 34 46 34 52 0 11 -79 97 -90 97 -3 0 -10
-4 -16 -8z"/>
<path d="M1983 4218 c-5 -7 -20 -33 -32 -57 -23 -45 -22 -71 2 -71 17 0 58
-44 86 -95 32 -56 34 -157 3 -207 -23 -37 -47 -54 -57 -39 -8 14 -84 200 -115
283 -16 42 -33 85 -39 95 -5 10 -15 33 -21 51 -10 26 -17 31 -33 26 -63 -20
-98 -42 -153 -99 -69 -71 -87 -115 -87 -220 0 -147 67 -260 196 -329 61 -32
77 -36 142 -36 107 0 174 28 250 105 76 77 89 113 89 240 0 95 -1 104 -36 175
-39 81 -64 113 -123 160 -41 33 -57 37 -72 18z m-204 -245 c7 -16 19 -41 27
-56 8 -16 14 -34 14 -40 0 -11 28 -77 55 -130 25 -49 15 -67 -37 -67 -32 0
-100 44 -128 82 -21 28 -25 44 -25 105 0 66 2 74 29 102 37 38 49 39 65 4z"/>
<path d="M8528 3803 c-20 -43 -34 -83 -31 -89 2 -6 45 -30 96 -54 100 -47 280
-132 394 -187 77 -37 101 -39 114 -10 5 9 14 25 19 35 13 22 26 51 34 78 6 18
-6 27 -106 74 -301 142 -425 202 -450 215 -14 8 -28 15 -30 15 -2 0 -20 -35
-40 -77z"/>
<path d="M8284 3681 c-93 -23 -239 -180 -293 -319 -29 -74 -28 -162 3 -229 31
-66 87 -122 201 -199 50 -33 155 -106 234 -162 80 -56 153 -102 163 -102 10 0
25 12 35 28 9 15 27 40 40 55 29 36 29 41 -3 70 -29 27 -27 30 33 46 96 26
194 169 201 293 6 99 -18 158 -94 234 -93 94 -201 124 -310 87 -59 -20 -88
-37 -133 -77 -65 -60 -111 -155 -111 -233 0 -36 -3 -41 -17 -36 -51 18 -108
110 -98 159 15 84 122 217 200 249 19 9 35 22 35 30 0 14 -47 116 -53 114 -1
-1 -16 -4 -33 -8z m344 -385 c73 -38 104 -106 89 -193 -7 -43 -16 -58 -56 -96
-53 -50 -99 -64 -160 -47 -51 13 -87 43 -111 91 -27 51 -25 90 5 149 35 70 93
110 157 110 27 0 61 -6 76 -14z"/>
<path d="M9267 3514 c-63 -42 -77 -119 -31 -173 22 -26 33 -31 71 -31 55 0 98
37 109 95 9 51 -4 85 -45 112 -43 29 -58 29 -104 -3z"/>
<path d="M2106 3483 c-77 -20 -148 -62 -214 -126 -160 -155 -161 -390 -5 -604
21 -29 54 -75 73 -103 70 -102 132 -181 145 -186 14 -6 222 138 518 356 37 27
70 50 73 50 12 0 103 76 104 86 0 6 -14 31 -32 55 -18 24 -46 64 -63 89 -100
145 -124 177 -176 234 -73 79 -137 121 -226 146 -80 23 -117 24 -197 3z m208
-193 c66 -28 96 -53 147 -121 24 -33 59 -81 78 -106 27 -36 31 -47 20 -54 -8
-4 -45 -31 -84 -59 -259 -187 -336 -240 -352 -240 -15 0 -129 159 -154 215
-43 94 -12 239 65 301 99 80 193 102 280 64z"/>
<path d="M7922 2898 c-34 -33 -62 -64 -62 -68 0 -4 10 -15 22 -26 62 -55 239
-269 247 -300 16 -58 3 -103 -45 -151 -89 -89 -134 -74 -296 98 -66 70 -127
137 -135 148 -8 12 -20 21 -26 21 -16 -1 -127 -106 -127 -121 0 -12 171 -201
268 -295 90 -88 173 -112 271 -79 97 32 201 153 201 233 0 31 20 56 28 34 2
-7 13 -17 23 -23 17 -9 29 -3 76 37 30 26 57 53 60 61 3 8 -23 43 -63 86 -38
40 -121 131 -186 202 -64 72 -134 147 -155 167 l-38 37 -63 -61z"/>
<path d="M3060 2561 c-66 -21 -129 -71 -182 -141 -66 -89 -88 -227 -48 -312
37 -78 50 -97 93 -134 56 -48 121 -76 183 -78 64 -1 68 9 -76 -190 -57 -79
-58 -75 35 -140 l63 -44 39 54 c21 30 54 77 73 104 81 115 138 194 188 262 30
40 69 96 88 123 19 28 57 81 84 120 28 38 50 75 50 81 0 15 -104 94 -123 94
-8 0 -22 -9 -32 -20 -19 -21 -19 -20 -38 30 -23 62 -102 145 -166 173 -50 22
-186 33 -231 18z m224 -195 c56 -43 71 -72 71 -141 0 -50 -5 -69 -27 -102 -64
-98 -157 -128 -240 -79 -25 14 -52 34 -61 44 -23 26 -38 96 -31 142 8 51 67
129 115 153 50 26 128 18 173 -17z"/>
<path d="M7300 2353 c-151 -15 -350 -167 -350 -268 0 -17 72 -54 105 -55 14 0
32 17 55 52 65 98 197 139 283 88 39 -23 45 -34 25 -44 -7 -3 -29 -16 -50 -28
-52 -33 -148 -90 -180 -108 -15 -8 -65 -37 -111 -64 l-85 -48 21 -37 c35 -62
106 -128 170 -156 53 -24 69 -27 136 -23 99 6 172 40 246 116 80 80 99 126 99
237 0 111 -22 163 -104 245 -69 69 -162 102 -260 93z m198 -371 c4 -62 -14
-100 -63 -138 -63 -48 -184 -42 -218 10 -15 23 -14 24 121 104 75 45 142 80
147 79 6 -2 11 -27 13 -55z"/>
<path d="M3733 2150 c-22 -9 -23 -28 -2 -55 4 -5 12 -29 18 -52 11 -40 13 -42
37 -33 93 36 247 -43 274 -138 22 -80 10 -97 -47 -67 -41 21 -162 75 -169 75
-3 0 -29 11 -57 24 -29 14 -83 38 -122 55 l-70 30 -23 -52 c-66 -147 -23 -306
108 -402 96 -71 227 -93 338 -57 78 24 170 115 202 197 58 151 6 316 -129 403
-102 66 -128 75 -236 78 -55 2 -110 0 -122 -6z m13 -339 c12 -12 199 -91 216
-91 7 -1 24 -10 37 -21 l24 -20 -27 -28 c-37 -38 -96 -53 -158 -40 -62 14
-124 73 -130 126 -8 68 9 101 38 74z"/>
<path d="M6690 2070 c-82 -30 -82 -32 -55 -100 7 -19 23 -62 35 -95 13 -33 29
-73 37 -88 21 -40 28 -175 11 -207 -13 -24 -44 -47 -107 -82 l-30 -17 26 -73
c15 -40 28 -74 29 -76 3 -5 64 28 98 52 16 12 41 41 56 64 l27 44 21 -36 21
-35 75 31 c42 17 76 36 76 42 0 16 -40 119 -51 130 -5 6 -9 18 -9 28 0 16 -49
150 -85 233 -7 17 -25 65 -40 107 -39 110 -43 112 -135 78z"/>
<path d="M4561 1868 c-5 -13 -32 -72 -61 -133 -101 -213 -140 -297 -140 -303
0 -6 -67 -148 -81 -172 -5 -8 -13 -24 -18 -35 -5 -11 -23 -49 -39 -85 -22 -46
-27 -67 -19 -71 7 -4 48 -10 92 -14 l80 -6 24 53 c31 69 87 189 145 310 25 53
46 103 46 111 0 8 7 20 15 27 8 7 15 20 15 30 0 9 8 24 19 34 17 16 19 14 30
-36 7 -29 16 -79 22 -111 15 -99 50 -259 58 -276 5 -9 11 -47 14 -86 9 -114 9
-114 131 -118 65 -2 71 0 83 23 12 23 137 284 197 411 14 31 26 63 26 72 0 10
4 17 8 17 5 0 14 12 21 26 6 15 14 24 17 21 6 -5 32 -135 54 -271 6 -33 14
-76 19 -95 5 -20 15 -69 21 -108 7 -40 16 -75 21 -79 5 -3 9 -20 9 -39 0 -19
4 -36 8 -39 4 -2 48 -8 96 -12 l89 -7 -6 44 c-4 24 -16 89 -27 144 -11 55 -25
123 -29 150 -24 135 -54 271 -62 279 -5 6 -9 28 -9 50 -1 74 -35 209 -56 222
-10 7 -58 15 -105 19 l-87 7 -42 -88 c-23 -49 -46 -96 -51 -104 -5 -8 -17 -34
-28 -58 -79 -169 -146 -302 -152 -302 -8 0 -13 21 -24 97 -4 24 -11 45 -16 49
-5 3 -9 24 -9 47 0 23 -14 107 -31 187 -17 80 -34 163 -38 185 l-6 40 -60 6
c-124 14 -155 11 -164 -13z"/>
<path d="M5902 1860 c-67 -41 -78 -137 -20 -185 42 -36 114 -35 157 1 27 23
31 32 31 77 -1 102 -87 156 -168 107z"/>
</g>
</svg>
